HIERARCHY
ROOT Hips
{
 OFFSET 0.000000 0.000000 0.000000
 CHANNELS 6 Xposition Yposition Zposition Yrotation Xrotation Zrotation
 JOINT Chest
 {
  OFFSET 0.000000 9.585900 0.002600
  CHANNELS 3 Yrotation Xrotation Zrotation
  JOINT Chest2
  {
   OFFSET 0.000000 9.601200 -0.005300
   CHANNELS 3 Yrotation Xrotation Zrotation
   JOINT Chest3
   {
    OFFSET 0.000000 9.561800 0.000000
    CHANNELS 3 Yrotation Xrotation Zrotation
    JOINT Chest4
    {
     OFFSET 0.000000 9.552100 0.000000
     CHANNELS 3 Yrotation Xrotation Zrotation
     JOINT Neck
     {
      OFFSET 0.000000 14.453000 0.000000
      CHANNELS 3 Yrotation Xrotation Zrotation
      JOINT Head
      {
       OFFSET 0.000000 8.936500 -0.011300
       CHANNELS 3 Yrotation Xrotation Zrotation
       End Site
       {
        OFFSET 0.000000 17.073600 -0.006000
       }
      }
     }
     JOINT RightCollar
     {
      OFFSET -2.921100 9.558500 0.000000
      CHANNELS 3 Yrotation Xrotation Zrotation
      JOINT RightShoulder
      {
       OFFSET -13.519700 0.000000 0.000000
       CHANNELS 3 Yrotation Xrotation Zrotation
       JOINT RightElbow
       {
        OFFSET 0.000000 -29.696600 0.000000
        CHANNELS 3 Yrotation Xrotation Zrotation
        JOINT RightWrist
        {
         OFFSET 0.000000 -24.004700 0.000000
         CHANNELS 3 Yrotation Xrotation Zrotation
         End Site
         {
          OFFSET 0.000000 -17.728500 0.000000
         }
        }
       }
      }
     }
     JOINT LeftCollar
     {
      OFFSET 2.921100 9.558500 0.000000
      CHANNELS 3 Yrotation Xrotation Zrotation
      JOINT LeftShoulder
      {
       OFFSET 13.519700 0.000000 0.000000
       CHANNELS 3 Yrotation Xrotation Zrotation
       JOINT LeftElbow
       {
        OFFSET 0.000000 -29.696600 0.000000
        CHANNELS 3 Yrotation Xrotation Zrotation
        JOINT LeftWrist
        {
         OFFSET 0.000000 -24.004700 0.000000
         CHANNELS 3 Yrotation Xrotation Zrotation
         End Site
         {
          OFFSET 0.000000 -17.728500 0.000000
         }
        }
       }
      }
     }
    }
   }
  }
 }
 JOINT RightHip
 {
  OFFSET -7.771700 -0.012900 -0.001300
  CHANNELS 3 Yrotation Xrotation Zrotation
  JOINT RightKnee
  {
   OFFSET 0.000000 -40.869800 0.001200
   CHANNELS 3 Yrotation Xrotation Zrotation
   JOINT RightAnkle
   {
    OFFSET 0.000000 -39.717900 0.002100
    CHANNELS 3 Yrotation Xrotation Zrotation
    JOINT RightToe
    {
     OFFSET 0.000000 -4.965400 11.033500
     CHANNELS 3 Yrotation Xrotation Zrotation
     End Site
     {
      OFFSET 0.000000 -1.423100 5.872300
     }
    }
   }
  }
 }
 JOINT LeftHip
 {
  OFFSET 7.771700 -0.012900 -0.001300
  CHANNELS 3 Yrotation Xrotation Zrotation
  JOINT LeftKnee
  {
   OFFSET 0.000000 -40.869800 0.001200
   CHANNELS 3 Yrotation Xrotation Zrotation
   JOINT LeftAnkle
   {
    OFFSET 0.000000 -39.717900 0.002100
    CHANNELS 3 Yrotation Xrotation Zrotation
    JOINT LeftToe
    {
     OFFSET 0.000000 -4.965400 11.033500
     CHANNELS 3 Yrotation Xrotation Zrotation
     End Site
     {
      OFFSET 0.000000 -1.423100 5.872300
     }
    }
   }
  }
 }
}
MOTION
Frames: 5
Frame Time: 0.008333
0.000000 85.388000 0.000000 0.000000 -5.767877 0.000000 0.000000 11.653817 0.000000 0.000000 -5.885947 0.000000 0.000000 -0.000000 0.000000 0.000000 -0.000000 0.000000 0.000000 12.528835 0.000000 0.000000 0.711642 0.000000 0.000000 -0.000000 0.000000 0.000000 0.000000 -90.000000 0.000000 -2.309062 0.000000 0.000000 2.309062 0.000000 0.000000 -0.000000 0.000000 0.000000 -0.000000 90.000000 0.000000 -2.309062 0.000000 0.000000 2.309062 0.000000 0.000000 8.520406 0.000000 0.000000 1.905762 0.000000 -0.000000 -4.658285 0.000000 0.000000 -0.000000 0.000000 0.000000 8.520406 0.000000 0.000000 1.905762 0.000000 -0.000000 -4.658285 0.000000 0.000000 -0.000000 0.000000
-190.664014 58.049990 28.978846 171.473044 -49.801061 -3.217723 5.332666 22.178546 3.681275 2.735391 12.708545 1.895033 3.527226 15.925042 2.501974 2.741610 12.726906 1.901122 5.002120 17.292905 -1.158144 9.652741 -3.357636 -3.797393 1.218175 4.496529 0.532844 1.611260 -13.138377 -9.555785 -68.786504 -55.435321 113.988125 -7.325210 -6.140629 -29.440737 -9.921498 2.389734 -0.673301 2.142867 -11.112315 11.528296 59.335735 -44.993831 -109.114683 10.023181 -18.157214 10.939793 3.552209 -22.848476 0.452381 -37.005173 73.301253 -38.280250 6.056332 -12.232711 8.828834 0.066796 -0.231449 0.031914 -1.454103 -21.376315 12.336667 51.823151 79.658316 51.397232 4.139078 -16.131195 -15.973205 0.082582 0.160852 0.044720
-190.663981 58.049364 28.975029 171.476070 -49.816525 -3.219836 5.330138 22.179508 3.677371 2.723759 12.687773 1.890206 3.530380 15.924106 2.497483 2.739260 12.723553 1.899909 5.049244 17.306825 -0.993754 9.696283 -3.325563 -3.523604 1.194784 4.496858 0.521064 1.562140 -13.131522 -9.522880 -68.829584 -55.503705 114.001330 -7.351758 -5.938125 -29.570347 -9.929729 2.326580 -0.660900 2.082975 -11.118066 11.542620 59.583101 -45.380094 -109.200476 9.668772 -17.724034 10.489405 3.546413 -22.834646 0.438327 -36.985240 73.313102 -38.253510 6.073373 -12.230279 8.827215 0.052272 -0.237488 0.022550 -1.443150 -21.363648 12.335671 51.831293 79.661160 51.415199 4.137665 -16.132037 -15.975936 0.085649 0.156253 0.044330
-190.663993 58.049077 28.970087 171.484133 -49.838845 -3.225846 5.318098 22.172950 3.668461 2.713834 12.678191 1.891291 3.527283 15.921755 2.493252 2.733911 12.718055 1.898959 5.096849 17.325201 -0.840639 9.730999 -3.286540 -3.263526 1.181227 4.497865 0.506727 1.514969 -13.122803 -9.493279 -68.877569 -55.578382 114.017594 -7.371275 -5.700077 -29.710995 -9.932577 2.270592 -0.648829 2.021509 -11.124234 11.553549 59.807975 -45.759930 -109.274977 9.327191 -17.290745 10.038477 3.538109 -22.812210 0.432827 -37.004355 73.320762 -38.268622 6.083064 -12.237205 8.824081 0.045557 -0.237933 0.020014 -1.434277 -21.341693 12.334539 51.826315 79.664941 51.421511 4.131143 -16.138427 -15.978007 0.090000 0.156315 0.046002
-190.661089 58.049541 28.964592 171.478288 -49.870326 -3.239508 5.298682 22.137241 3.666388 2.724791 12.702787 1.900207 3.495715 15.862502 2.488060 2.751637 12.766325 1.897423 5.136869 17.346873 -0.699014 9.754561 -3.242571 -3.021032 1.167074 4.496448 0.495424 1.470767 -13.111377 -9.470991 -68.922474 -55.657309 114.029335 -7.381950 -5.427383 -29.855442 -9.938257 2.241488 -0.639298 1.957576 -11.151996 11.566100 60.001835 -46.121907 -109.326417 8.997951 -16.848481 9.581675 3.531780 -22.780978 0.448802 -37.046213 73.323349 -38.301218 6.098031 -12.246934 8.815072 0.044949 -0.236882 0.019667 -1.410563 -21.315779 12.351926 51.880891 79.671894 51.504369 4.109595 -16.146756 -15.985896 0.100121 0.147411 0.049200
